<!-- Generator: Adobe Illustrator 24.0.3, SVG Export Plug-In  -->
<svg version="1.1" xmlns="http://www.w3.org/2000/svg" xmlns:xlink="http://www.w3.org/1999/xlink" x="0px" y="0px" width="221.1px"
	 height="257.8px" viewBox="0 0 200 300" style="enable-background:new 0 0 221.1 257.8;" xml:space="preserve">
<style type="text/css">
	.st0{fill:#205A88;}
	.st1{fill:#DEF7C4;}
	.st2{fill:#138959;}
  @keyframes flapRight{
    0%{
      transform: rotate(0deg);
    }
    50%{
      transform: rotate(50deg);
    }
    100%{
      transform: rotate(0deg);
    }
  }
  @keyframes flapLeft{
    0%{
      transform: rotate(0deg);
    }
    50%{
      transform: rotate(-50deg);
    }
    100%{
      transform: rotate(0deg);
    }
  }
  .leftWing{
    transform-origin: 70% 40%;
    animation: flapLeft 0.5s linear infinite;
  }
  .rightWing{
    transform-origin: 60% 50%;
    animation: flapRight 0.5s linear infinite;
  }
</style>
<defs>
</defs>
<g>
	<g id="XMLID_1_">
		<path id="XMLID_22_" class="st0 wing rightWing" d="M124.1,164.4c0,0,45.1,6.3,54.6,7.9c15.9,2.7,22.8,11.9,23.5,29.9c0.6,18-6.4,43.1-1.1,51.9
			c5.4,8.8-20.2,1.9-19.1-24.4c0,0-2.4,6.9-2.5,13.5c-0.1,6.1-4.9,5.6-8.6,2.4c-5.9-5.2-7.4-21.7-7.4-21.7s-2.2,5.5-1.8,10.5
			c0.6,7.6-2.2,6.6-5.2,3.8c-8.5-7.7-9.7-36.8-22.8-46c-13.1-9.2-22.1-12.8-22.1-12.8L124.1,164.4z"/>
		<path id="XMLID_21_" class="st0 wing leftWing" d="M100.8,116.5c0,0,20.6-40.6,24.7-49.4c6.8-14.6,3.2-25.6-11.2-36.3
			C100,20.1,75.3,11.5,71.1,2.1C67-7.4,58,17.6,80.2,31.7c0,0-7-2-12.5-5.7c-5-3.4-7.4,0.9-6.9,5.7c0.9,7.8,13.6,18.5,13.6,18.5
			s-5.8-1.3-9.7-4.5c-5.9-4.8-6.6-2-6.1,2.1c1.5,11.4,24.7,29,24.8,44.9c0.1,16-2.1,25.5-2.1,25.5L100.8,116.5z"/>
		<g id="XMLID_2_">
			<g id="XMLID_8_">
				<path id="XMLID_20_" class="st1" d="M221.1,135.4c0,0-13.4,0.8-38.4,13.7c-26.2,13.4-76.7,67.1-105.4,82.4
					C52.6,244.7,35.1,244,35.1,244L0,164.2c0,0,12.4,0.3,38-12.8c26.9-13.8,74.3-62.8,98.2-76.1c23.9-13.3,41.6-11.1,41.6-11.1
					L221.1,135.4z"/>
				<g id="XMLID_19_">
					<path class="st2" d="M173.9,71.1l36.1,59.5c-7,1.9-17.2,5.5-30.4,12.3c-13.8,7.1-32.7,23.6-52.7,41.1
						c-19.2,16.7-39,34-52.7,41.4c-15.7,8.4-28.3,10.8-34.4,11.4l-29.5-67c6.9-1.6,17.2-5,31.1-12.2c15-7.7,35.4-25.2,55.1-42.1
						c16.9-14.5,32.8-28.2,43.4-34.1C155.5,72.5,168.3,71.2,173.9,71.1 M174.7,64c-6.1,0-20.6,1.3-38.5,11.2
						c-23.9,13.3-71.3,62.3-98.2,76.1C13.5,164,1.1,164.2,0.1,164.2c0,0-0.1,0-0.1,0L35.1,244c0,0,0.2,0,0.5,0
						c2.9,0,19.3-0.6,41.7-12.5c28.7-15.3,79.2-69,105.4-82.4c25-12.8,38.4-13.7,38.4-13.7l-43.2-71.2C177.9,64.2,176.8,64,174.7,64
						L174.7,64z"/>
				</g>
				<g id="XMLID_9_">
					<g id="XMLID_15_">
						<path id="XMLID_16_" class="st2" d="M77,225.5L77,225.5c-25.8,13.8-37.5,13.3-38,13.2l-1.1-0.1L7,167.7l2.3-0.3
							c0.1,0,13.3-2.1,34.5-13.4c13.2-7,32.3-23.5,50.9-39.5c16-13.8,31.1-26.8,41.4-32.8c1.3-0.8,2.7-1.6,4.1-2.3
							c10.4-5.6,19.3-8,24.9-9.1c6.1-1.2,9.8-1.1,9.9-1l1,0l37.6,62.4l-2.7,0.4c-0.1,0-13.4,2.1-31.7,11.9c-1.5,0.8-3,1.6-4.5,2.5
							l0,0c-11.5,6.3-28.3,21.5-46.2,37.6C109.9,200.7,90.7,218,77,225.5L77,225.5z M40.3,235.1c1.3-0.1,3.8-0.4,7.6-1.4
							c5.4-1.4,14.5-4.5,27.4-11.4c13.4-7.3,32.4-24.5,50.8-41.1c18-16.2,35-31.5,46.9-38c1.5-0.9,3-1.7,4.6-2.5
							c14.3-7.6,25.4-10.7,30.2-11.8l-33.9-56.2c-1.4,0-4.3,0.2-8.3,1c-5.3,1.1-13.7,3.4-23.7,8.8c-1.3,0.7-2.6,1.4-3.9,2.2
							c-10,5.9-25,18.8-40.8,32.5c-18.7,16.1-38,32.7-51.5,40c-16.9,9-28.7,12.3-33.4,13.4L40.3,235.1z"/>
					</g>
					<g id="XMLID_10_">
						<path id="XMLID_14_" class="st2" d="M33.1,223.1l6,13.8c0,0,4.6,0.3,14.6-3.1c-0.3-1.3-0.8-2.7-1.5-3.9
							C48.5,223,40.1,220.1,33.1,223.1z"/>
						<path id="XMLID_13_" class="st2" d="M174.8,70.9c0,0-5.1-0.2-13.6,1.9c0.1,1.6,0.6,3.1,1.4,4.6c3.4,6.3,11.5,8.4,18.3,4.8
							c0.2-0.1,0.4-0.2,0.6-0.3L174.8,70.9z"/>
						<path id="XMLID_12_" class="st2" d="M9.6,169.2l5.4,12.4c0.3-0.2,0.6-0.4,1-0.5c6.9-1.4,11.6-9.6,9.4-16.7
							C15.3,168.3,9.6,169.2,9.6,169.2z"/>
						<path id="XMLID_11_" class="st2" d="M194.1,135.1c10.1-3.9,16.5-4.9,16.5-4.9l-7.2-12C195.5,120.8,192.9,129,194.1,135.1z"/>
					</g>
				</g>
			</g>
			<g id="XMLID_3_">
				<path id="XMLID_7_" class="st2" d="M128.2,141.9c-7.2-13.4-21.9-19.5-32.8-13.6c-11,5.9-14.1,21.5-6.9,34.9
					c7.2,13.4,21.9,19.5,32.8,13.6C132.2,170.9,135.3,155.3,128.2,141.9z"/>
				<g id="XMLID_4_">
					<path id="XMLID_5_" class="st1" d="M117,173.4l-2.6-4.9c-3.2,1.7-7,2.6-9.6,2.4l-0.4-3.9c2.6,0.1,6-0.5,9-2.2
						c3.9-2.1,5.5-5.5,4-8.2c-1.4-2.7-4.4-3.2-9.3-2.4c-6.6,1.1-11.3,0.7-13.6-3.5c-2.1-4-0.5-8.8,4.1-12.2l-2.6-4.9l3.4-1.8
						l2.5,4.7c3.4-1.7,6-2.1,8.1-2.1l0.3,3.9c-1.5,0-4.3,0.2-7.8,2.1c-4.2,2.3-4.6,5.3-3.6,7.3c1.3,2.5,4.1,2.7,9.8,1.9
						c6.8-1,11,0,13.3,4.3c2,3.8,0.9,9-4.3,12.9l2.7,5L117,173.4z"/>
				</g>
			</g>
		</g>
	</g>
	<g>
		<ellipse transform="matrix(0.98 -0.1991 0.1991 0.98 -28.3125 24.344)" class="st2" cx="106.9" cy="152.9" rx="27.8" ry="27.8"/>
		<path class="st1" d="M115.9,146.2L115.9,146.2c-2.4-0.6-5.1,0-8.1,1.8l-5.5,3.3c-1.8,1.1-2.6,1-2.8,1c-0.2,0-0.9-0.3-2-2.1
			c-1.1-1.8-1-2.5-0.9-2.7c0-0.2,0.3-0.9,2.1-2l5.7-3.4c1.7-1,2.5-1,2.7-0.9c0.2,0,0.8,0.3,1.7,1.7l0.1,0.1c0.5,0.7,1.2,1.1,1.9,1.3
			c0.8,0.2,1.7,0.1,2.5-0.4c0.8-0.5,1.3-1.1,1.5-2c0.3-0.9,0.1-1.8-0.5-2.6c-1.7-2.5-3.7-4.1-5.9-4.5c-2.2-0.5-4.7,0.1-7.4,1.8
			l-0.3,0.2l-1-1.6c-0.9-1.5-2.8-1.9-4.3-1c-1.5,0.9-1.9,2.8-1,4.3l1,1.6l0,0c-2.8,1.7-4.5,3.7-5.1,6c-0.6,2.3,0,4.9,1.7,7.7
			c1.7,2.8,3.8,4.6,6.1,5.1c2.3,0.6,4.9,0,7.7-1.7l5.5-3.3c2-1.2,2.9-1.1,3.1-1.1c0.2,0.1,1.1,0.4,2.2,2.3c1.2,2,1.1,2.9,1.1,3.1
			c-0.1,0.2-0.4,1-2.4,2.3l-5.8,3.5c-1.9,1.2-2.8,1.1-3,1.1c-0.3,0-1-0.3-2-2l-0.1-0.1c-0.5-0.7-1.2-1.2-2-1.4
			c-0.8-0.2-1.7-0.1-2.4,0.4c-0.8,0.5-1.3,1.2-1.5,2c-0.2,0.9,0,1.8,0.5,2.6c1.8,2.7,3.9,4.3,6.2,4.8c2.3,0.5,4.9-0.2,7.7-1.9
			l0.3-0.2l1,1.6c0.9,1.5,2.8,1.9,4.3,1c1.5-0.9,1.9-2.8,1-4.3l-1-1.6l0.2-0.1c3-1.8,4.8-3.9,5.4-6.3c0.6-2.4,0-5.1-1.8-8
			C120.4,148.6,118.3,146.8,115.9,146.2z"/>
	</g>
</g>
</svg>
