<!-- Generator: Adobe Illustrator 23.0.6, SVG Export Plug-In  -->
<svg version="1.1" xmlns="http://www.w3.org/2000/svg" xmlns:xlink="http://www.w3.org/1999/xlink" x="0px" y="0px"
	 width="224.39px" height="96.12px" viewBox="0 0 224.39 96.12" style="enable-background:new 0 0 224.39 96.12;"
	 xml:space="preserve">
<style type="text/css">
	.st0{fill:#c41230;}
	.st1{fill:#c41230;}
</style>
<defs>
</defs>
<g>
	<g>
		<g>
			<path class="st0" d="M90.99,79.03c-1.38,2.31-5.07,6.06-8.38,6.06c-2.89,0-5.21-1.67-4.95-4.08c0.36-3.31,2.49-5,5.09-6.28
				c2.84-1.42,6.6-3.26,9.8-5.31 M106.09,93.54c1.13-1.92,0.57-3.22-0.33-4.15c-0.69-0.7-1.35-1.93-1.16-3.14l3.22-22.04
				c1.04-7.11,1.14-12.73-2.79-16.28c-2.46-2.21-6.15-3.81-13.11-3.83c-3.46-0.01-8.57,1.09-12.31,3.41
				c-3.86,2.4-9.18,6.66-9.18,11.78c0,1.48,1.47,2.41,3.15,2.41c2.72,0,7.41-0.77,8.52-2.98c1.4-2.7,2.41-4.28,5.56-4.62
				c3.77-0.41,6.63,2.32,6.13,5.36l-0.29,1.92c-3.24,1.97-9.25,3.17-15.6,4.95c-6.49,1.81-12.83,4.2-14.39,15.01
				c-1.35,9.15,4.69,14.64,11.31,14.64c5.73,0,10.46-1.95,15.39-7.25c0,0,0.38,3.17,1.68,5.24
				C94.12,97.46,104.74,95.75,106.09,93.54z"/>
			<path class="st0" d="M197.36,79.03c-1.37,2.31-5.09,6.06-8.4,6.06c-2.86,0-5.18-1.67-4.92-4.08c0.36-3.31,2.48-5.01,5.09-6.28
				c3.15-1.56,6.61-3.26,9.8-5.31 M212.44,93.54c1.16-1.92,0.59-3.22-0.31-4.15c-0.71-0.7-1.35-1.93-1.16-3.14l3.22-22.04
				c1.04-7.11,1.14-12.73-2.79-16.28c-2.46-2.21-6.15-3.81-13.14-3.83c-3.43-0.01-8.54,1.09-12.28,3.41
				c-3.86,2.4-9.19,6.66-9.19,11.78c0,1.48,1.47,2.41,3.15,2.41c2.72,0,7.41-0.77,8.52-2.98c1.39-2.7,2.41-4.28,5.56-4.62
				c3.76-0.41,6.6,2.32,6.13,5.36l-0.29,1.92c-3.24,1.97-9.25,3.17-15.6,4.95c-6.48,1.81-12.83,4.2-14.41,15.01
				c-1.32,9.15,4.71,14.64,11.34,14.64c5.73,0,10.46-1.95,15.36-7.25c0,0,0.4,3.17,1.7,5.24C200.46,97.46,211.12,95.75,212.44,93.54
				z"/>
			<path class="st1" d="M127.63,26.77c-0.4,0.14-10.32,2.58-10.32,2.58c-1.71,0.37-3.29-0.42-3.29-0.42l4-9.51
				c1.75-4,0.45-6.12,0.45-6.12l-4.8-11.22c-1.99-5.22-1.18,3.18-1.18,3.18l-0.69-1.7c-1.07-2.28-1.04,0.6-1.02,1.46
				c0.02,0.86,0.26,4.21,0.26,4.21l-0.5-0.5c-1.47-1.93-0.95,0.24-0.92,2.61c0.05,3.71-1.02,5.45-1.42,6.28
				c-0.19,0.37-2.01,4.63-2.01,4.63l-4.26-7.67c-2.04-3.51-3.48-3.95-3.48-3.95L81.03,0.8c-4.57-2.9-0.35,3.03-0.35,3.03
				c-5.26-2.72,1.59,4.09,1.59,4.09c-7.81-3.4,3.86,6.71,3.86,6.71c-3.91-1.55,0.31,2.5,2.49,5c0.99,1.14,1.66,2.69,1.66,2.69
				l1.92,4.61c1.32,3.28,3.36,4.3,3.36,4.3l-7.74,1.79c-1.52,0.15-1,0.08-3.81,0.27c-2.68,0.19-7.53,1.4-3.46,1.53l3.43,0.03
				c0,0-1.52,1.46,2.44,1.72l2.79,0.16c0,0,0.43,1.1,3.57,1.29c0,0,7.03,0.17,8.76,0.09c2.23-0.1,5.8-0.68,7.03-1.01
				c3.95-1.16,9.47-4.29,9.47-4.29s2.25-1.01,2.72-1.19c0.54-0.21,6.58-2.29,7.24-2.43c0.64-0.13,2.18-0.36,3-0.22
				c0,0-1.94-0.55-1.47-1.95c0.21-0.74,1.49-1.24,1.75-0.18c0,0,0,0.32,0.71,0.4c0,0,1.59,0.08,1.32,1.44l1.45-0.34
				c0,0,1.32-0.03,1.51-0.05c0.43-0.02,1.47-0.2,2.06-0.47c0.12-0.05,1.18-0.61-0.36-0.73l-1.14-0.07c0,0-1.11-0.06-1.96-0.73
				c-0.47-0.33-1.92-1.35-4.95-0.47C129,26.11,127.89,26.66,127.63,26.77"/>
			<path class="st0" d="M47.37,33.73c0.57,1.94,0.71,39.48,0.71,39.48l0.28-0.05c0,0,0.64-1.25,3.81-11.3
				c2.89-9.16,7.53-27.44,7.81-28.11c0.52-1.21,12.95-3.9,13.7,0c0.36,1.88-8.5,27.28-13.89,41.85
				c-5.09,13.75-6.51,17.15-7.41,18.46c-0.85,1.29-16.38,3.92-17.37,0c-0.66-2.65-1.75-31.87-1.75-31.87l-0.19-0.05
				c0,0-3.43,11.49-6.23,20.05c-2.6,8-3.79,10.6-4.64,11.87c-0.76,1.09-16.14,3.9-17.33,0c-0.43-1.41-1.56-17.46-2.72-32.66
				C1.09,47.71-0.07,34.72,0,33.74c0.07-1.32,16.14-3.9,17.33,0c0.62,2.06,0.64,39.57,0.64,39.57l0.31-0.1c0,0,1.3-3.26,4.31-12.53
				c3.15-9.71,4.99-17.3,7.46-26.95C30.37,32.43,46.18,29.83,47.37,33.73"/>
			<path class="st0" d="M152.34,45.98c0.43,1.54,1.8,31.88,1.8,31.88l0.26-0.04c0,0,1.59-4.12,3.6-11.64
				c2.77-10.31,4.73-19.3,5.04-19.98c1.04-2.41,14.51-2.98,13.68-0.21c-1.11,3.74-5.35,16.31-11.15,30.62
				c-5.47,13.47-6.93,16.27-7.69,17.45c-1.16,1.79-14.06,3.27-15.01,0c-0.59-1.98-1.77-26.23-1.77-26.23h-0.17
				c0,0-2.01,7.29-4.99,15.1c-2.91,7.57-4.33,10.11-5.02,11.13c-1.18,1.75-14.04,3.27-15.01,0c-0.43-1.47-1.25-13.72-2.22-25.45
				c-0.95-11.38-2.04-22.26-1.87-22.62c0.9-1.8,13.96-3.22,15.01,0.03c0.47,1.49,0.92,31.91,0.92,31.91l0.33-0.11
				c0,0,1.52-3.76,3.91-11.76c2.55-8.65,4.9-19.36,5.35-20.07C138.5,44.21,151.45,42.7,152.34,45.98"/>
			<path class="st0" d="M220.42,51.86v-0.88h0.54c0.31,0,0.71,0.03,0.71,0.4c0,0.4-0.21,0.48-0.57,0.48 M220.42,52.48h0.38
				l0.83,1.54h0.95l-0.95-1.6c0.5-0.03,0.88-0.27,0.88-0.95c0-0.84-0.54-1.11-1.49-1.11h-1.38v3.66h0.78V52.48z M224.39,52.2
				c0-2.16-1.61-3.41-3.41-3.41c-1.8,0-3.41,1.25-3.41,3.41c0,2.15,1.61,3.4,3.41,3.4C222.79,55.6,224.39,54.34,224.39,52.2z
				 M223.43,52.2c0,1.56-1.11,2.61-2.44,2.61V54.8c-1.35,0.01-2.44-1.05-2.44-2.6c0-1.57,1.09-2.61,2.44-2.61
				C222.31,49.58,223.43,50.63,223.43,52.2z"/>
		</g>
	</g>
</g>
</svg>
