<svg id="Layer_1" data-name="Layer 1" xmlns="http://www.w3.org/2000/svg" xmlns:xlink="http://www.w3.org/1999/xlink" viewBox="0 0 250.81 368"><defs><style>.cls-1,.cls-5,.cls-6,.cls-9{fill:none;}.cls-2{fill:#1186c8;opacity:0.17;}.cls-3{clip-path:url(#clip-path);}.cls-4{opacity:0.5;}.cls-5,.cls-6,.cls-7{stroke:#da6127;}.cls-5,.cls-6,.cls-7,.cls-9{stroke-miterlimit:10;}.cls-5{stroke-width:0.75px;}.cls-6{stroke-width:9px;}.cls-10,.cls-7{fill:#da6127;}.cls-7{stroke-width:5px;}.cls-8{clip-path:url(#clip-path-2);}.cls-9{stroke:#fff;stroke-width:0.5px;}</style><clipPath id="clip-path"><path id="SVGID" class="cls-1" d="M39.13,9.15A214.42,214.42,0,0,1,82.66,4.7C175.49,4.7,244.85,54,244.85,117.75S175.49,235.61,82.66,235.61a214.4,214.4,0,0,1-44.06-4.3s25.26-6.05,27.2-106.59C67.76,23.6,38.28,9.33,39.13,9.15Z"/></clipPath><clipPath id="clip-path-2"><ellipse class="cls-1" cx="40.24" cy="122.16" rx="30.19" ry="113.98"/></clipPath></defs><title>player</title><path class="cls-2" d="M187.5,55.4C156.76,34.24,114.69,22.58,69,22.58A221.42,221.42,0,0,0,24.6,27l0,.24C8.87,31-3.62,80.51-3.62,141-3.62,188.37,4,229,14.91,246.19h-.27l.51,3a354.17,354.17,0,0,1,4.36,52.61c0,24.78-4.57,61-4.62,61.38l0,.32c0,5,24.35,7.54,24.35-1.17l0-.33c-.05-.35-4.61-35.52-4.61-60a444.51,444.51,0,0,1,2.58-45.63A235.57,235.57,0,0,0,69,258.37c45.28,0,87.39-12.52,118.57-35.26s48.14-52.83,48.15-85C235.72,106.19,218.6,76.82,187.5,55.4ZM26.57,242c-2.53-3.05-7.09-11.35-11.16-29.13-4.54-19.82-7-45.32-7-71.81s2.5-52,7-71.8C19.48,51.44,24,43.14,26.57,40.08c2.53,3.06,7.08,11.36,11.15,29.14,4.54,19.82,7,45.32,7,71.8s-2.5,52-7,71.81C33.65,230.61,29.1,238.91,26.57,242Zm155.68-26.12C152.6,237.46,112.38,249.37,69,249.37a227.47,227.47,0,0,1-30.73-2l.12-.91h-.31C49,229.36,56.76,188.6,56.76,141,56.76,91.86,48.52,50,37,34A220.25,220.25,0,0,1,69,31.58c43.85,0,84.1,11.09,113.35,31.24,28.59,19.68,44.33,46.42,44.32,75.29C226.71,167.33,210.92,194.94,182.25,215.84Z"/><g class="cls-3"><g class="cls-4"><line class="cls-5" x1="-80.37" y1="74.51" x2="221.56" y2="-44.79"/><line class="cls-5" x1="-84.99" y1="70.85" x2="216.94" y2="-48.45"/><line class="cls-5" x1="-89.6" y1="67.19" x2="212.33" y2="-52.11"/><line class="cls-5" x1="-94.21" y1="63.53" x2="207.71" y2="-55.77"/><line class="cls-5" x1="-78.48" y1="79.3" x2="223.45" y2="-40"/><line class="cls-5" x1="-76.58" y1="84.09" x2="225.34" y2="-35.2"/><line class="cls-5" x1="-74.69" y1="88.89" x2="227.24" y2="-30.41"/><line class="cls-5" x1="-72.8" y1="93.68" x2="229.13" y2="-25.62"/><line class="cls-5" x1="-70.9" y1="98.47" x2="231.03" y2="-20.83"/><line class="cls-5" x1="-69.01" y1="103.26" x2="232.92" y2="-16.03"/><line class="cls-5" x1="-67.12" y1="108.06" x2="234.81" y2="-11.24"/><line class="cls-5" x1="-65.22" y1="112.85" x2="236.71" y2="-6.45"/><line class="cls-5" x1="-63.33" y1="117.64" x2="238.6" y2="-1.66"/><line class="cls-5" x1="-61.44" y1="122.43" x2="240.49" y2="3.14"/><line class="cls-5" x1="-59.54" y1="127.23" x2="242.39" y2="7.93"/><line class="cls-5" x1="-57.65" y1="132.02" x2="244.28" y2="12.72"/><line class="cls-5" x1="-55.75" y1="136.81" x2="246.17" y2="17.51"/><line class="cls-5" x1="-53.86" y1="141.6" x2="248.07" y2="22.31"/><line class="cls-5" x1="-51.97" y1="146.4" x2="249.96" y2="27.1"/><line class="cls-5" x1="-50.07" y1="151.19" x2="251.86" y2="31.89"/><line class="cls-5" x1="-48.18" y1="155.98" x2="253.75" y2="36.68"/><line class="cls-5" x1="-46.29" y1="160.77" x2="255.64" y2="41.48"/><line class="cls-5" x1="-44.39" y1="165.57" x2="257.54" y2="46.27"/><line class="cls-5" x1="-42.5" y1="170.36" x2="259.43" y2="51.06"/><line class="cls-5" x1="-40.61" y1="175.15" x2="261.32" y2="55.85"/><line class="cls-5" x1="-38.71" y1="179.94" x2="263.22" y2="60.65"/><line class="cls-5" x1="-36.82" y1="184.74" x2="265.11" y2="65.44"/><line class="cls-5" x1="-34.92" y1="189.53" x2="267" y2="70.23"/><line class="cls-5" x1="-33.03" y1="194.32" x2="268.9" y2="75.02"/><line class="cls-5" x1="-31.14" y1="199.11" x2="270.79" y2="79.82"/><line class="cls-5" x1="-29.24" y1="203.91" x2="272.69" y2="84.61"/><line class="cls-5" x1="-27.35" y1="208.7" x2="274.58" y2="89.4"/><line class="cls-5" x1="-25.46" y1="213.49" x2="276.47" y2="94.19"/><line class="cls-5" x1="-23.56" y1="218.29" x2="278.37" y2="98.99"/><line class="cls-5" x1="-21.67" y1="223.08" x2="280.26" y2="103.78"/><line class="cls-5" x1="-19.78" y1="227.87" x2="282.15" y2="108.57"/><line class="cls-5" x1="-17.88" y1="232.66" x2="284.05" y2="113.36"/><line class="cls-5" x1="-15.99" y1="237.46" x2="285.94" y2="118.16"/><line class="cls-5" x1="-14.09" y1="242.25" x2="287.83" y2="122.95"/><line class="cls-5" x1="-12.2" y1="247.04" x2="289.73" y2="127.74"/><line class="cls-5" x1="-10.31" y1="251.83" x2="291.62" y2="132.53"/><line class="cls-5" x1="-8.41" y1="256.63" x2="293.52" y2="137.33"/><line class="cls-5" x1="-6.52" y1="261.42" x2="295.41" y2="142.12"/><line class="cls-5" x1="-4.63" y1="266.21" x2="297.3" y2="146.91"/><line class="cls-5" x1="-2.73" y1="271" x2="299.2" y2="151.7"/><line class="cls-5" x1="-0.84" y1="275.8" x2="301.09" y2="156.5"/><line class="cls-5" x1="1.05" y1="280.59" x2="302.98" y2="161.29"/><line class="cls-5" x1="2.95" y1="285.38" x2="304.88" y2="166.08"/><line class="cls-5" x1="4.84" y1="290.17" x2="306.77" y2="170.87"/><line class="cls-5" x1="6.74" y1="294.97" x2="308.66" y2="175.67"/><line class="cls-5" x1="11.35" y1="-46.19" x2="309.2" y2="82.95"/><line class="cls-5" x1="9.3" y1="-41.46" x2="307.15" y2="87.68"/><line class="cls-5" x1="7.25" y1="-36.73" x2="305.1" y2="92.41"/><line class="cls-5" x1="5.2" y1="-32" x2="303.05" y2="97.14"/><line class="cls-5" x1="3.15" y1="-27.27" x2="301" y2="101.87"/><line class="cls-5" x1="1.1" y1="-22.55" x2="298.95" y2="106.59"/><line class="cls-5" x1="-0.95" y1="-17.82" x2="296.9" y2="111.32"/><line class="cls-5" x1="-3" y1="-13.09" x2="294.85" y2="116.05"/><line class="cls-5" x1="-5.05" y1="-8.36" x2="292.8" y2="120.78"/><line class="cls-5" x1="-7.1" y1="-3.64" x2="290.75" y2="125.5"/><line class="cls-5" x1="-9.15" y1="1.09" x2="288.7" y2="130.23"/><line class="cls-5" x1="-11.2" y1="5.82" x2="286.65" y2="134.96"/><line class="cls-5" x1="-13.25" y1="10.55" x2="284.6" y2="139.69"/><line class="cls-5" x1="-15.3" y1="15.28" x2="282.55" y2="144.42"/><line class="cls-5" x1="-17.35" y1="20" x2="280.5" y2="149.14"/><line class="cls-5" x1="-19.4" y1="24.73" x2="278.45" y2="153.87"/><line class="cls-5" x1="-21.45" y1="29.46" x2="276.4" y2="158.6"/><line class="cls-5" x1="-23.5" y1="34.19" x2="274.35" y2="163.33"/><line class="cls-5" x1="-25.55" y1="38.91" x2="272.3" y2="168.05"/><line class="cls-5" x1="-27.6" y1="43.64" x2="270.25" y2="172.78"/><line class="cls-5" x1="-29.65" y1="48.37" x2="268.2" y2="177.51"/><line class="cls-5" x1="-31.7" y1="53.1" x2="266.15" y2="182.24"/><line class="cls-5" x1="-33.75" y1="57.83" x2="264.1" y2="186.97"/><line class="cls-5" x1="-35.8" y1="62.55" x2="262.05" y2="191.69"/><line class="cls-5" x1="-37.85" y1="67.28" x2="260" y2="196.42"/><line class="cls-5" x1="-39.9" y1="72.01" x2="257.95" y2="201.15"/><line class="cls-5" x1="-41.95" y1="76.74" x2="255.9" y2="205.88"/><line class="cls-5" x1="-44" y1="81.47" x2="253.85" y2="210.6"/><line class="cls-5" x1="-46.05" y1="86.19" x2="251.8" y2="215.33"/><line class="cls-5" x1="-48.1" y1="90.92" x2="249.75" y2="220.06"/><line class="cls-5" x1="-50.15" y1="95.65" x2="247.7" y2="224.79"/><line class="cls-5" x1="-52.2" y1="100.38" x2="245.65" y2="229.52"/><line class="cls-5" x1="-54.25" y1="105.1" x2="243.6" y2="234.24"/><line class="cls-5" x1="-56.3" y1="109.83" x2="241.55" y2="238.97"/><line class="cls-5" x1="-58.35" y1="114.56" x2="239.5" y2="243.7"/><line class="cls-5" x1="-60.4" y1="119.29" x2="237.45" y2="248.43"/><line class="cls-5" x1="-62.45" y1="124.02" x2="235.4" y2="253.16"/><line class="cls-5" x1="-64.5" y1="128.74" x2="233.35" y2="257.88"/><line class="cls-5" x1="-66.55" y1="133.47" x2="231.3" y2="262.61"/><line class="cls-5" x1="-68.6" y1="138.2" x2="229.25" y2="267.34"/><line class="cls-5" x1="-70.65" y1="142.93" x2="227.2" y2="272.07"/><line class="cls-5" x1="-72.7" y1="147.65" x2="225.15" y2="276.79"/><line class="cls-5" x1="-74.75" y1="152.38" x2="223.1" y2="281.52"/><line class="cls-5" x1="-76.8" y1="157.11" x2="221.05" y2="286.25"/><line class="cls-5" x1="-78.85" y1="161.84" x2="219" y2="290.98"/><line class="cls-5" x1="-80.9" y1="166.57" x2="216.95" y2="295.71"/><line class="cls-5" x1="-82.95" y1="171.29" x2="214.91" y2="300.43"/></g></g><path class="cls-6" d="M39.19,12.58A218.92,218.92,0,0,1,82.71,8.22c92.83,0,162.19,48.4,162.17,111S175.49,235,82.66,235a223,223,0,0,1-38.38-3.15"/><path class="cls-7" d="M31,344.59s4.64-36.47,4.64-61.7a352.9,352.9,0,0,0-4.4-53l17.91.19a443.42,443.42,0,0,0-3.43,53c0,25,4.63,60.37,4.63,60.37C50.39,350.82,31,352,31,344.59Z"/><g class="cls-8"><g class="cls-4"><line class="cls-5" x1="-159.56" y1="51.96" x2="142.37" y2="-67.33"/></g><g class="cls-4"><line class="cls-5" x1="-164.17" y1="48.3" x2="137.75" y2="-70.99"/></g><g class="cls-4"><line class="cls-5" x1="-168.79" y1="44.65" x2="133.14" y2="-74.65"/></g><g class="cls-4"><line class="cls-5" x1="-173.4" y1="40.99" x2="128.53" y2="-78.31"/></g><g class="cls-4"><line class="cls-5" x1="-157.67" y1="56.76" x2="144.26" y2="-62.54"/></g><g class="cls-4"><line class="cls-5" x1="-155.77" y1="61.55" x2="146.16" y2="-57.75"/></g><g class="cls-4"><line class="cls-5" x1="-153.88" y1="66.34" x2="148.05" y2="-52.96"/></g><g class="cls-4"><line class="cls-5" x1="-151.99" y1="71.13" x2="149.94" y2="-48.16"/></g><g class="cls-4"><line class="cls-5" x1="-150.09" y1="75.93" x2="151.84" y2="-43.37"/></g><g class="cls-4"><line class="cls-5" x1="-148.2" y1="80.72" x2="153.73" y2="-38.58"/></g><g class="cls-4"><line class="cls-5" x1="-144.41" y1="90.3" x2="157.52" y2="-28.99"/></g><g class="cls-4"><line class="cls-5" x1="-142.52" y1="95.1" x2="159.41" y2="-24.2"/></g><g class="cls-4"><line class="cls-5" x1="-140.62" y1="99.89" x2="161.3" y2="-19.41"/></g><g class="cls-4"><line class="cls-5" x1="-138.73" y1="104.68" x2="163.2" y2="-14.62"/></g><g class="cls-4"><line class="cls-5" x1="-136.84" y1="109.47" x2="165.09" y2="-9.82"/></g><g class="cls-4"><line class="cls-5" x1="-134.94" y1="114.27" x2="166.99" y2="-5.03"/></g><g class="cls-4"><line class="cls-5" x1="-133.05" y1="119.06" x2="168.88" y2="-0.24"/></g><g class="cls-4"><line class="cls-5" x1="-131.16" y1="123.85" x2="170.77" y2="4.55"/></g><g class="cls-4"><line class="cls-5" x1="-129.26" y1="128.64" x2="172.67" y2="9.35"/></g><g class="cls-4"><line class="cls-5" x1="-127.37" y1="133.44" x2="174.56" y2="14.14"/></g><g class="cls-4"><line class="cls-5" x1="-125.48" y1="138.23" x2="176.45" y2="18.93"/></g><g class="cls-4"><line class="cls-5" x1="-123.58" y1="143.02" x2="178.35" y2="23.72"/></g><g class="cls-4"><line class="cls-5" x1="-121.69" y1="147.81" x2="180.24" y2="28.52"/></g><g class="cls-4"><line class="cls-5" x1="-119.79" y1="152.61" x2="182.13" y2="33.31"/></g><g class="cls-4"><line class="cls-5" x1="-117.9" y1="157.4" x2="184.03" y2="38.1"/></g><g class="cls-4"><line class="cls-5" x1="-116.01" y1="162.19" x2="185.92" y2="42.89"/></g><g class="cls-4"><line class="cls-5" x1="-114.11" y1="166.98" x2="187.82" y2="47.69"/></g><g class="cls-4"><line class="cls-5" x1="-112.22" y1="171.78" x2="189.71" y2="52.48"/></g><g class="cls-4"><line class="cls-5" x1="-110.33" y1="176.57" x2="191.6" y2="57.27"/></g><g class="cls-4"><line class="cls-5" x1="-108.43" y1="181.36" x2="193.5" y2="62.06"/></g><g class="cls-4"><line class="cls-5" x1="-106.54" y1="186.15" x2="195.39" y2="66.86"/></g><g class="cls-4"><line class="cls-5" x1="-104.65" y1="190.95" x2="197.28" y2="71.65"/></g><g class="cls-4"><line class="cls-5" x1="-102.75" y1="195.74" x2="199.18" y2="76.44"/></g><g class="cls-4"><line class="cls-5" x1="-100.86" y1="200.53" x2="201.07" y2="81.23"/></g><g class="cls-4"><line class="cls-5" x1="-98.96" y1="205.32" x2="202.96" y2="86.03"/></g><g class="cls-4"><line class="cls-5" x1="-97.07" y1="210.12" x2="204.86" y2="90.82"/></g><g class="cls-4"><line class="cls-5" x1="-95.18" y1="214.91" x2="206.75" y2="95.61"/></g><g class="cls-4"><line class="cls-5" x1="-93.28" y1="219.7" x2="208.65" y2="100.4"/></g><g class="cls-4"><line class="cls-5" x1="-91.39" y1="224.49" x2="210.54" y2="105.2"/></g><g class="cls-4"><line class="cls-5" x1="-89.5" y1="229.29" x2="212.43" y2="109.99"/></g><g class="cls-4"><line class="cls-5" x1="-87.6" y1="234.08" x2="214.33" y2="114.78"/></g><g class="cls-4"><line class="cls-5" x1="-85.71" y1="238.87" x2="216.22" y2="119.57"/></g><g class="cls-4"><line class="cls-5" x1="-83.82" y1="243.67" x2="218.11" y2="124.37"/></g><g class="cls-4"><line class="cls-5" x1="-81.92" y1="248.46" x2="220.01" y2="129.16"/></g><g class="cls-4"><line class="cls-5" x1="-80.03" y1="253.25" x2="221.9" y2="133.95"/></g><g class="cls-4"><line class="cls-5" x1="-78.13" y1="258.04" x2="223.79" y2="138.74"/></g><g class="cls-4"><line class="cls-5" x1="-76.24" y1="262.84" x2="225.69" y2="143.54"/></g><g class="cls-4"><line class="cls-5" x1="-74.35" y1="267.63" x2="227.58" y2="148.33"/></g><line class="cls-9" x1="35.63" y1="229.71" x2="229.48" y2="153.12"/><g class="cls-4"><line class="cls-5" x1="-67.84" y1="-68.73" x2="230.01" y2="60.41"/></g><g class="cls-4"><line class="cls-5" x1="-69.89" y1="-64" x2="227.96" y2="65.14"/></g><g class="cls-4"><line class="cls-5" x1="-71.94" y1="-59.28" x2="225.91" y2="69.86"/></g><g class="cls-4"><line class="cls-5" x1="-73.99" y1="-54.55" x2="223.86" y2="74.59"/></g><g class="cls-4"><line class="cls-5" x1="-76.04" y1="-49.82" x2="221.81" y2="79.32"/></g><g class="cls-4"><line class="cls-5" x1="-78.09" y1="-45.09" x2="219.76" y2="84.05"/></g><g class="cls-4"><line class="cls-5" x1="-80.14" y1="-40.36" x2="217.71" y2="88.78"/></g><g class="cls-4"><line class="cls-5" x1="-82.19" y1="-35.64" x2="215.66" y2="93.5"/></g><g class="cls-4"><line class="cls-5" x1="-84.24" y1="-30.91" x2="213.61" y2="98.23"/></g><g class="cls-4"><line class="cls-5" x1="-86.29" y1="-26.18" x2="211.56" y2="102.96"/></g><g class="cls-4"><line class="cls-5" x1="-88.34" y1="-21.45" x2="209.51" y2="107.69"/></g><g class="cls-4"><line class="cls-5" x1="-90.39" y1="-16.73" x2="207.46" y2="112.41"/></g><g class="cls-4"><line class="cls-5" x1="-92.44" y1="-12" x2="205.41" y2="117.14"/></g><g class="cls-4"><line class="cls-5" x1="-94.49" y1="-7.27" x2="203.36" y2="121.87"/></g><g class="cls-4"><line class="cls-5" x1="-96.54" y1="-2.54" x2="201.31" y2="126.6"/></g><g class="cls-4"><line class="cls-5" x1="-98.59" y1="2.19" x2="199.26" y2="131.33"/></g><g class="cls-4"><line class="cls-5" x1="-100.64" y1="6.91" x2="197.21" y2="136.05"/></g><g class="cls-4"><line class="cls-5" x1="-102.69" y1="11.64" x2="195.16" y2="140.78"/></g><g class="cls-4"><line class="cls-5" x1="-104.74" y1="16.37" x2="193.11" y2="145.51"/></g><g class="cls-4"><line class="cls-5" x1="-106.79" y1="21.1" x2="191.06" y2="150.24"/></g><g class="cls-4"><line class="cls-5" x1="-108.84" y1="25.83" x2="189.01" y2="154.96"/></g><g class="cls-4"><line class="cls-5" x1="-110.89" y1="30.55" x2="186.96" y2="159.69"/></g><g class="cls-4"><line class="cls-5" x1="-112.94" y1="35.28" x2="184.91" y2="164.42"/></g><g class="cls-4"><line class="cls-5" x1="-114.99" y1="40.01" x2="182.86" y2="169.15"/></g><g class="cls-4"><line class="cls-5" x1="-117.04" y1="44.74" x2="180.81" y2="173.88"/></g><g class="cls-4"><line class="cls-5" x1="-119.09" y1="49.46" x2="178.76" y2="178.6"/></g><g class="cls-4"><line class="cls-5" x1="-121.14" y1="54.19" x2="176.71" y2="183.33"/></g><g class="cls-4"><line class="cls-5" x1="-123.19" y1="58.92" x2="174.66" y2="188.06"/></g><g class="cls-4"><line class="cls-5" x1="-125.24" y1="63.65" x2="172.61" y2="192.79"/></g><g class="cls-4"><line class="cls-5" x1="-127.29" y1="68.38" x2="170.56" y2="197.52"/></g><g class="cls-4"><line class="cls-5" x1="-129.34" y1="73.1" x2="168.51" y2="202.24"/></g><g class="cls-4"><line class="cls-5" x1="-131.39" y1="77.83" x2="166.46" y2="206.97"/></g><g class="cls-4"><line class="cls-5" x1="-133.44" y1="82.56" x2="164.41" y2="211.7"/></g><g class="cls-4"><line class="cls-5" x1="-135.49" y1="87.29" x2="162.36" y2="216.43"/></g><g class="cls-4"><line class="cls-5" x1="-137.54" y1="92.01" x2="160.31" y2="221.15"/></g><g class="cls-4"><line class="cls-5" x1="-139.59" y1="96.74" x2="158.26" y2="225.88"/></g><g class="cls-4"><line class="cls-5" x1="-141.64" y1="101.47" x2="156.21" y2="230.61"/></g><g class="cls-4"><line class="cls-5" x1="-143.69" y1="106.2" x2="154.16" y2="235.34"/></g><g class="cls-4"><line class="cls-5" x1="-145.74" y1="110.93" x2="152.11" y2="240.07"/></g><g class="cls-4"><line class="cls-5" x1="-147.79" y1="115.65" x2="150.06" y2="244.79"/></g><g class="cls-4"><line class="cls-5" x1="-149.84" y1="120.38" x2="148.01" y2="249.52"/></g><g class="cls-4"><line class="cls-5" x1="-151.89" y1="125.11" x2="145.97" y2="254.25"/></g><g class="cls-4"><line class="cls-5" x1="-153.94" y1="129.84" x2="143.92" y2="258.98"/></g><g class="cls-4"><line class="cls-5" x1="-155.99" y1="134.57" x2="141.87" y2="263.7"/></g><g class="cls-4"><line class="cls-5" x1="-158.04" y1="139.29" x2="139.82" y2="268.43"/></g><path class="cls-10" d="M40.24,21.22c2.53,3.06,7.08,11.36,11.15,29.13,4.54,19.83,7,45.33,7,71.81s-2.5,52-7,71.81c-4.07,17.78-8.62,26.08-11.15,29.13-2.53-3-7.09-11.35-11.16-29.13-4.54-19.82-7-45.32-7-71.81s2.5-52,7-71.81c4.07-17.77,8.63-26.07,11.16-29.13m0-13c-16.68,0-30.2,51-30.2,114s13.52,114,30.2,114,30.19-51,30.19-114-13.52-114-30.19-114Z"/></g></svg>