<!-- Generator: Adobe Illustrator 24.0.3, SVG Export Plug-In  -->
<svg version="1.1" xmlns="http://www.w3.org/2000/svg" xmlns:xlink="http://www.w3.org/1999/xlink" x="0px" y="0px" width="314.6px"
	 height="476px" viewBox="0 0 314.6 476" style="enable-background:new 0 0 314.6 476;" xml:space="preserve">
<style type="text/css">
	.st0{fill:#138959;}
</style>
<defs>
</defs>
<g>
	<g>
		<polygon class="st0" points="134.1,108.6 125.1,49.4 131.1,48.8 		"/>
	</g>
	<g>
		<polygon class="st0" points="275.9,198.9 305.8,190.3 306.9,196.2 		"/>
	</g>
	<g>
		<polygon class="st0" points="276.2,299.4 312,323 308.4,327.7 		"/>
	</g>
	<g>
		<polygon class="st0" points="219.7,139.2 240.4,110.7 244.9,114.7 		"/>
	</g>
	<g>
		<polygon class="st0" points="223.6,365.3 243.2,387.7 238.3,391.2 		"/>
	</g>
	<g>
		<polygon class="st0" points="135.1,389.7 138.1,476 132.1,476 		"/>
	</g>
	<g>
		<polygon class="st0" points="211.7,134.8 242.7,74 247.9,76.9 		"/>
	</g>
	<g>
		<polygon class="st0" points="144.6,109.9 157.3,9.1 163.3,10 		"/>
	</g>
	<g>
		<polygon class="st0" points="265.4,183.7 311.6,154.2 314.6,159.4 		"/>
	</g>
	<g>
		<polygon class="st0" points="283.1,290.5 303.1,294.8 301.1,300.4 		"/>
	</g>
	<g>
		<polygon class="st0" points="229.9,354.8 280.4,387 277,391.9 		"/>
	</g>
	<g>
		<polygon class="st0" points="146.2,390.7 160.4,416.5 154.9,418.9 		"/>
	</g>
	<polygon class="st0" points="112.4,6.3 119.2,0 118.5,9.2 127.6,10.6 120,15.8 124.6,23.8 115.8,21.1 112.4,29.7 109,21.1
		100.2,23.8 104.8,15.8 97.2,10.6 106.3,9.2 105.7,0 	"/>
	<polygon class="st0" points="276.1,97.8 284.8,93.8 279.3,103.2 288.2,109.4 277.5,111 278.2,121.8 272,115.3 264,122.6
		264.8,111.8 254.1,110.1 263.1,104 257.7,94.5 268.1,97.7 272.2,87.6 	"/>
	<polygon class="st0" points="263,404.7 271.2,405.4 263.1,410 267.1,418.5 258.4,415.1 254.3,423.5 252.5,416 243.4,418
		248.7,410.3 241.4,404.5 250.7,403.8 250.7,394.4 257.1,401.3 264.4,395.4 	"/>
	<g>
		<polygon class="st0" points="48.8,107 36,80.1 41.7,78.1 		"/>
	</g>
	<g>
		<polygon class="st0" points="40,115.4 0,70.7 4.7,67 		"/>
	</g>
	<polygon class="st0" points="21.6,58.4 13.9,55.6 23,53.2 21.4,44 28.8,49.7 35,42.7 34.7,50.4 44,50.9 36.9,56.9 42.3,64.5
		33.2,62.7 30.6,71.6 26.4,63.3 17.7,67 	"/>
	<polygon class="st0" points="173.1,452.1 181.2,452.8 173.1,457.5 177.2,465.9 168.4,462.5 164.4,470.9 162.6,463.4 153.5,465.5
		158.7,457.7 151.4,451.9 160.7,451.2 160.7,441.8 167.1,448.7 174.4,442.9 	"/>
</g>
</svg>
